<svg width="24.079" height="24.079" viewBox="0 0 6.371 6.371" xml:space="preserve" xmlns="http://www.w3.org/2000/svg">
  <g style="fill:none">
    <path style="fill:#00a99d" d="M132.155 583.967a37.407 37.407 0 0 0-9.072 3.486 37.89 37.89 0 0 1 8.538 6.349 37.82 37.82 0 0 1 7.572 10.659 37.44 37.44 0 0 1 3.627 16.11 37.428 37.428 0 0 1-3.627 16.11 37.855 37.855 0 0 0 10.659-7.572 45.582 45.582 0 0 0 0-17.074 45.175 45.175 0 0 0-4.838-13.393 45.83 45.83 0 0 0-12.859-14.675z" transform="matrix(.07 0 0 .07 -5.43 -40.257)"/>
    <path style="fill:#c71a25" d="M131.621 647.339a37.876 37.876 0 0 1-8.537 6.349 37.407 37.407 0 0 1-9.072 3.486 37.591 37.591 0 0 1-8.856 1.062c-3.75 0-9.119-1.34-15.846-3.891-2.551-6.728-3.891-12.096-3.891-15.846 0-3.051.374-6.014 1.062-8.856a45.462 45.462 0 0 1-5.216-9.072 45.244 45.244 0 0 0-3.684 17.928c0 2.763.548 6.568 2.096 11.791.861 2.904 2.031 6.247 3.591 10.097 3.85 1.56 7.193 2.73 10.097 3.591 5.223 1.548 9.027 2.096 11.791 2.096a45.24 45.24 0 0 0 17.928-3.684 45.56 45.56 0 0 0 9.072-5.216 45.84 45.84 0 0 0 12.858-14.673 45.185 45.185 0 0 1-13.393 4.838zm-8.538-54.344a45.51 45.51 0 0 0-8.538.807 45.185 45.185 0 0 0-13.393 4.838 45.83 45.83 0 0 0-14.673 12.858 37.407 37.407 0 0 0 3.486 9.072 37.89 37.89 0 0 1 6.349-8.538 37.84 37.84 0 0 1 10.659-7.572 37.425 37.425 0 0 1 16.11-3.627 37.446 37.446 0 0 1 16.11 3.627 37.855 37.855 0 0 0-7.572-10.659 45.67 45.67 0 0 0-8.538-.806z" transform="matrix(.07 0 0 .07 -5.43 -40.257)"/>
    <path style="fill:#f59a15" d="M149.852 629.108a37.82 37.82 0 0 1-10.659 7.572 37.425 37.425 0 0 1-16.11 3.627 37.431 37.431 0 0 1-16.11-3.627 37.855 37.855 0 0 0 7.572 10.659 45.582 45.582 0 0 0 17.074 0 45.185 45.185 0 0 0 13.393-4.838 45.83 45.83 0 0 0 14.673-12.858 37.407 37.407 0 0 0-3.486-9.072 37.808 37.808 0 0 1-6.347 8.537zm2.951-51.945c-5.224-1.549-9.028-2.096-11.791-2.096a45.24 45.24 0 0 0-17.928 3.684 45.56 45.56 0 0 0-9.072 5.216 45.84 45.84 0 0 0-12.858 14.673 45.175 45.175 0 0 1 13.393-4.838 37.86 37.86 0 0 1 8.538-6.349 37.407 37.407 0 0 1 9.072-3.486 37.591 37.591 0 0 1 8.856-1.062c3.75 0 9.119 1.34 15.846 3.891 2.551 6.727 3.89 12.096 3.89 15.846 0 3.051-.374 6.014-1.062 8.856a45.462 45.462 0 0 1 5.216 9.072 45.249 45.249 0 0 0 3.684-17.929c0-2.763-.548-6.567-2.096-11.79-.861-2.905-2.031-6.247-3.591-10.097-3.85-1.559-7.193-2.73-10.097-3.591z" transform="matrix(.07 0 0 .07 -5.43 -40.257)"/>
    <path style="fill:#8bf718" d="M96.315 612.033a45.593 45.593 0 0 0 0 17.076 45.185 45.185 0 0 0 4.838 13.393 45.853 45.853 0 0 0 12.858 14.673 37.407 37.407 0 0 0 9.072-3.486 37.884 37.884 0 0 1-8.537-6.349 37.82 37.82 0 0 1-7.572-10.659 37.428 37.428 0 0 1-3.627-16.11 37.446 37.446 0 0 1 3.627-16.11 37.84 37.84 0 0 0-10.659 7.572z" transform="matrix(.07 0 0 .07 -5.43 -40.257)"/>
    <path style="fill:#00a99d" d="M105.155 575.067c-2.763 0-6.567.548-11.791 2.096-2.904.861-6.247 2.031-10.097 3.591-1.56 3.85-2.73 7.193-3.591 10.097-1.549 5.223-2.096 9.027-2.096 11.791a45.249 45.249 0 0 0 3.684 17.929 45.56 45.56 0 0 0 5.216 9.072 45.84 45.84 0 0 0 14.673 12.858 45.175 45.175 0 0 1-4.838-13.393 37.86 37.86 0 0 1-6.349-8.538 37.407 37.407 0 0 1-3.486-9.072 37.594 37.594 0 0 1-1.062-8.857c0-3.75 1.34-9.119 3.891-15.846 6.728-2.551 12.096-3.891 15.846-3.891a37.6 37.6 0 0 1 8.857 1.062 45.51 45.51 0 0 1 9.072-5.216 45.266 45.266 0 0 0-17.929-3.683z" transform="matrix(.07 0 0 .07 -5.43 -40.257)"/>
    <path style="fill:#8bf718" d="M145.014 598.64a45.175 45.175 0 0 1 4.838 13.393 37.876 37.876 0 0 1 6.349 8.537 37.407 37.407 0 0 1 3.486 9.072 37.591 37.591 0 0 1 1.062 8.856c0 3.75-1.34 9.119-3.89 15.846-6.728 2.551-12.097 3.891-15.846 3.891-3.05 0-6.014-.374-8.856-1.062a45.462 45.462 0 0 1-9.072 5.216 45.244 45.244 0 0 0 17.928 3.684c2.763 0 6.568-.548 11.791-2.096 2.904-.861 6.247-2.031 10.097-3.591 1.56-3.85 2.73-7.193 3.591-10.097 1.548-5.223 2.096-9.027 2.096-11.791a45.24 45.24 0 0 0-3.684-17.928 45.56 45.56 0 0 0-5.216-9.072 45.867 45.867 0 0 0-14.674-12.858z" transform="matrix(.07 0 0 .07 -5.43 -40.257)"/>
  </g>
</svg>
